<svg xmlns="http://www.w3.org/2000/svg" xmlns:svg="http://www.w3.org/2000/svg" id="svg5" width="498.598" height="472.913" version="1.1" viewBox="0 0 131.921 125.125"><defs id="defs2"><marker style="overflow:visible" id="marker43227" orient="auto" refX="0" refY="0"><path transform="scale(0.8)" style="fill:none;fill-opacity:.75;fill-rule:evenodd;stroke:context-stroke;stroke-width:1pt" id="path43225" d="M 0,5.65 V -5.65"/></marker><marker style="overflow:visible" id="StopL" orient="auto" refX="0" refY="0"><path transform="scale(0.8)" style="fill:none;fill-opacity:.75;fill-rule:evenodd;stroke:context-stroke;stroke-width:1pt" id="path24947" d="M 0,5.65 V -5.65"/></marker><marker style="overflow:visible" id="Arrow1Lstart" orient="auto" refX="0" refY="0"><path transform="matrix(0.8,0,0,0.8,10,0)" style="fill:context-stroke;fill-rule:evenodd;stroke:context-stroke;stroke-width:1pt" id="path24778" d="M 0,0 5,-5 -12.5,0 5,5 Z"/></marker><marker style="overflow:visible" id="Arrow1Lstart-9" orient="auto" refX="0" refY="0"><path transform="matrix(0.8,0,0,0.8,10,0)" style="fill:context-stroke;fill-rule:evenodd;stroke:context-stroke;stroke-width:1pt" id="path24778-4" d="M 0,0 5,-5 -12.5,0 5,5 Z"/></marker><marker style="overflow:visible" id="Arrow1Lstart-3" orient="auto" refX="0" refY="0"><path transform="matrix(0.8,0,0,0.8,10,0)" style="fill:context-stroke;fill-rule:evenodd;stroke:context-stroke;stroke-width:1pt" id="path24778-0" d="M 0,0 5,-5 -12.5,0 5,5 Z"/></marker><marker style="overflow:visible" id="Arrow1Lstart-9-4" orient="auto" refX="0" refY="0"><path transform="matrix(0.8,0,0,0.8,10,0)" style="fill:context-stroke;fill-rule:evenodd;stroke:context-stroke;stroke-width:1pt" id="path24778-4-8" d="M 0,0 5,-5 -12.5,0 5,5 Z"/></marker><marker style="overflow:visible" id="Arrow1Lstart-9-1" orient="auto" refX="0" refY="0"><path transform="matrix(0.8,0,0,0.8,10,0)" style="fill:context-stroke;fill-rule:evenodd;stroke:context-stroke;stroke-width:1pt" id="path24778-4-4" d="M 0,0 5,-5 -12.5,0 5,5 Z"/></marker><marker style="overflow:visible" id="Arrow1Lstart-8" orient="auto" refX="0" refY="0"><path transform="matrix(0.8,0,0,0.8,10,0)" style="fill:context-stroke;fill-rule:evenodd;stroke:context-stroke;stroke-width:1pt" id="path24778-8" d="M 0,0 5,-5 -12.5,0 5,5 Z"/></marker><marker style="overflow:visible" id="Arrow1Lstart-5" orient="auto" refX="0" refY="0"><path transform="matrix(0.8,0,0,0.8,10,0)" style="fill:context-stroke;fill-rule:evenodd;stroke:context-stroke;stroke-width:1pt" id="path24778-9" d="M 0,0 5,-5 -12.5,0 5,5 Z"/></marker><marker style="overflow:visible" id="Arrow1Lstart-5-3" orient="auto" refX="0" refY="0"><path transform="matrix(0.8,0,0,0.8,10,0)" style="fill:context-stroke;fill-rule:evenodd;stroke:context-stroke;stroke-width:1pt" id="path24778-9-2" d="M 0,0 5,-5 -12.5,0 5,5 Z"/></marker><marker style="overflow:visible" id="Arrow1Lstart-5-3-8" orient="auto" refX="0" refY="0"><path transform="matrix(0.8,0,0,0.8,10,0)" style="fill:context-stroke;fill-rule:evenodd;stroke:context-stroke;stroke-width:1pt" id="path24778-9-2-6" d="M 0,0 5,-5 -12.5,0 5,5 Z"/></marker><marker style="overflow:visible" id="Arrow1Lstart-80" orient="auto" refX="0" refY="0"><path transform="matrix(0.8,0,0,0.8,10,0)" style="fill:context-stroke;fill-rule:evenodd;stroke:context-stroke;stroke-width:1pt" id="path24778-2" d="M 0,0 5,-5 -12.5,0 5,5 Z"/></marker><marker style="overflow:visible" id="Arrow1Lstart-5-4" orient="auto" refX="0" refY="0"><path transform="matrix(0.8,0,0,0.8,10,0)" style="fill:context-stroke;fill-rule:evenodd;stroke:context-stroke;stroke-width:1pt" id="path24778-9-8" d="M 0,0 5,-5 -12.5,0 5,5 Z"/></marker><marker style="overflow:visible" id="Arrow1Lstart-5-3-3" orient="auto" refX="0" refY="0"><path transform="matrix(0.8,0,0,0.8,10,0)" style="fill:context-stroke;fill-rule:evenodd;stroke:context-stroke;stroke-width:1pt" id="path24778-9-2-9" d="M 0,0 5,-5 -12.5,0 5,5 Z"/></marker><marker style="overflow:visible" id="Arrow1Lstart-5-3-8-0" orient="auto" refX="0" refY="0"><path transform="matrix(0.8,0,0,0.8,10,0)" style="fill:context-stroke;fill-rule:evenodd;stroke:context-stroke;stroke-width:1pt" id="path24778-9-2-6-5" d="M 0,0 5,-5 -12.5,0 5,5 Z"/></marker><marker style="overflow:visible" id="Arrow1Lstart-9-2" orient="auto" refX="0" refY="0"><path transform="matrix(0.8,0,0,0.8,10,0)" style="fill:context-stroke;fill-rule:evenodd;stroke:context-stroke;stroke-width:1pt" id="path24778-4-2" d="M 0,0 5,-5 -12.5,0 5,5 Z"/></marker><marker style="overflow:visible" id="Arrow1Lstart-8-7" orient="auto" refX="0" refY="0"><path transform="matrix(0.8,0,0,0.8,10,0)" style="fill:context-stroke;fill-rule:evenodd;stroke:context-stroke;stroke-width:1pt" id="path24778-8-3" d="M 0,0 5,-5 -12.5,0 5,5 Z"/></marker><marker style="overflow:visible" id="Arrow1Lstart-9-1-7" orient="auto" refX="0" refY="0"><path transform="matrix(0.8,0,0,0.8,10,0)" style="fill:context-stroke;fill-rule:evenodd;stroke:context-stroke;stroke-width:1pt" id="path24778-4-4-9" d="M 0,0 5,-5 -12.5,0 5,5 Z"/></marker><marker style="overflow:visible" id="StopL-0" orient="auto" refX="0" refY="0"><path transform="scale(0.8)" style="fill:none;fill-opacity:.75;fill-rule:evenodd;stroke:context-stroke;stroke-width:1pt" id="path24947-2" d="M 0,5.65 V -5.65"/></marker><marker style="overflow:visible" id="marker43227-3" orient="auto" refX="0" refY="0"><path transform="scale(0.8)" style="fill:none;fill-opacity:.75;fill-rule:evenodd;stroke:context-stroke;stroke-width:1pt" id="path43225-9" d="M 0,5.65 V -5.65"/></marker></defs><g id="layer1" transform="translate(138.94063,-46.690483)"><g id="g7420"><rect style="fill:#fff;fill-rule:evenodd;stroke-width:.268058" id="rect209" width="131.921" height="125.125" x="-138.941" y="46.69"/><rect style="fill:none;fill-opacity:1;stroke:#000;stroke-width:1.113;stroke-miterlimit:4;stroke-dasharray:none" id="rect846" width="27.409" height="16.319" x="-77.947" y="91.291"/><rect style="fill:none;fill-opacity:1;stroke:#000;stroke-width:1.113;stroke-miterlimit:4;stroke-dasharray:none" id="rect846-4" width="24.343" height="16.319" x="-119.642" y="91.291"/><rect style="fill:none;fill-opacity:1;stroke:#0000e2;stroke-width:1.113;stroke-miterlimit:4;stroke-dasharray:none;stroke-opacity:1" id="rect846-2-6" width="8.676" height="16.319" x="-86.623" y="91.291" ry="0"/><rect style="fill:none;fill-opacity:1;stroke:#0000e2;stroke-width:1.113;stroke-miterlimit:4;stroke-dasharray:none;stroke-opacity:1" id="rect846-2-6-9" width="8.676" height="16.319" x="-50.538" y="91.291" ry="0"/><rect style="fill:none;fill-opacity:1;stroke:#d30000;stroke-width:1.113;stroke-miterlimit:4;stroke-dasharray:none;stroke-opacity:1" id="rect846-2-6-9-4" width="8.676" height="16.319" x="-128.317" y="91.291" ry="0"/><rect style="fill:none;fill-opacity:1;stroke:#d30000;stroke-width:1.113;stroke-miterlimit:4;stroke-dasharray:none;stroke-opacity:1" id="rect846-2-6-9-4-1" width="8.676" height="16.319" x="-95.298" y="91.291" ry="0"/><rect style="fill:none;fill-opacity:1;stroke:#81009c;stroke-width:1.113;stroke-miterlimit:4;stroke-dasharray:none;stroke-opacity:1" id="rect846-2-6-9-4-5" width="8.676" height="16.319" x="-136.993" y="91.291" ry="0"/><rect style="fill:none;fill-opacity:1;stroke:#81009c;stroke-width:1.113;stroke-miterlimit:4;stroke-dasharray:none;stroke-opacity:1" id="rect846-2-6-9-4-5-5" width="8.676" height="16.319" x="-41.862" y="91.291" ry="0"/><text xml:space="preserve" style="font-style:normal;font-weight:400;font-size:10.5833px;line-height:1.25;font-family:sans-serif;fill:#000;fill-opacity:1;stroke:none;stroke-width:.264583" id="text2862" x="-76.911" y="104.057"><tspan id="tspan2860" style="stroke-width:.264583" x="-76.911" y="104.057">label</tspan></text><text xml:space="preserve" style="font-style:normal;font-weight:400;font-size:10.5833px;line-height:1.25;font-family:sans-serif;fill:#000;fill-opacity:1;stroke:none;stroke-width:.264583" id="text2862-1" x="-118.403" y="103.229"><tspan id="tspan2860-3" style="stroke-width:.264583" x="-118.403" y="103.229">icon</tspan></text><rect style="fill:none;fill-opacity:1;stroke:#008700;stroke-width:1.113;stroke-miterlimit:4;stroke-dasharray:none;stroke-opacity:1" id="rect16332" width="86.852" height="33.378" x="-128.681" y="83.28" ry="8.515"/><path style="fill:none;stroke:#000;stroke-width:.265;stroke-linecap:butt;stroke-linejoin:miter;stroke-miterlimit:4;stroke-dasharray:none;stroke-opacity:1;marker-start:url(#Arrow1Lstart-80)" id="path19280" d="m -124.53956,108.79124 c 0,0 -9.17781,36.63641 2.63321,36.92925"/><path style="fill:none;stroke:#000;stroke-width:.265;stroke-linecap:butt;stroke-linejoin:miter;stroke-miterlimit:4;stroke-dasharray:none;stroke-opacity:1;marker-start:url(#Arrow1Lstart-5-4)" id="path19280-5" d="m -134.6284,89.217992 c 0,0 -6.00905,-16.478055 4.14215,-18.59951"/><path style="fill:none;stroke:#000;stroke-width:.265;stroke-linecap:butt;stroke-linejoin:miter;stroke-miterlimit:4;stroke-dasharray:none;stroke-opacity:1;marker-start:url(#Arrow1Lstart-5-3-3)" id="path19280-5-7" d="m -36.37067,89.008781 c 0,0 18.43567,-25.531658 5.1984,-27.200433"/><path style="fill:none;stroke:#000;stroke-width:.265;stroke-linecap:butt;stroke-linejoin:miter;stroke-miterlimit:4;stroke-dasharray:none;stroke-opacity:1;marker-start:url(#Arrow1Lstart-5-3-8-0)" id="path19280-5-7-9" d="m -14.50913,94.5804 c 0,0 30.42847,-41.52206 -41.7734,-41.791674"/><path style="fill:none;stroke:#000;stroke-width:.265;stroke-linecap:butt;stroke-linejoin:miter;stroke-miterlimit:4;stroke-dasharray:none;stroke-opacity:1;marker-start:url(#Arrow1Lstart-9-2)" id="path19280-3" d="m -92.388588,109.09018 c -5.116769,6.64156 -36.013732,16.86992 -29.570372,27.41933"/><path style="fill:none;stroke:#000;stroke-width:.265;stroke-linecap:butt;stroke-linejoin:miter;stroke-miterlimit:4;stroke-dasharray:none;stroke-opacity:1;marker-start:url(#Arrow1Lstart-8-7)" id="path19280-7" d="m -80.131668,109.73949 c 16.701748,22.269 48.010778,17.32207 27.228838,48.09537"/><path style="fill:none;stroke:#000;stroke-width:.265;stroke-linecap:butt;stroke-linejoin:miter;stroke-miterlimit:4;stroke-dasharray:none;stroke-opacity:1;marker-start:url(#Arrow1Lstart-9-1-7)" id="path19280-3-1" d="m -45.56639,109.58575 c 0.11567,7.22382 10.46142,58.21472 -1.95688,57.44712"/><text xml:space="preserve" style="font-style:normal;font-weight:400;font-size:7.05556px;line-height:1.25;font-family:sans-serif;fill:#000;fill-opacity:1;stroke:none;stroke-width:.264583" id="text21979" x="-119.866" y="147.866"><tspan id="tspan21977" style="font-size:7.05556px;stroke-width:.264583" x="-119.866" y="147.866">icon.padding_left</tspan></text><text xml:space="preserve" style="font-style:normal;font-weight:400;font-size:7.05556px;line-height:1.25;font-family:sans-serif;fill:#000;fill-opacity:1;stroke:none;stroke-width:.264583" id="text21979-3" x="-119.801" y="139.345"><tspan id="tspan21977-6" style="font-size:7.05556px;stroke-width:.264583" x="-119.801" y="139.345">icon.padding_right</tspan></text><text xml:space="preserve" style="font-style:normal;font-weight:400;font-size:7.05556px;line-height:1.25;font-family:sans-serif;fill:#000;fill-opacity:1;stroke:none;stroke-width:.264583" id="text21979-8" x="-128.47" y="72.668"><tspan id="tspan21977-5" style="font-size:7.05556px;stroke-width:.264583" x="-128.47" y="72.668">background.padding_left</tspan></text><text xml:space="preserve" style="font-style:normal;font-weight:400;font-size:7.05556px;line-height:1.25;font-family:sans-serif;fill:#000;fill-opacity:1;stroke:none;stroke-width:.264583" id="text21979-3-89" x="-128.405" y="64.148"><tspan id="tspan21977-6-9" style="font-size:7.05556px;stroke-width:.264583" x="-128.405" y="64.148">background.padding_right</tspan></text><text xml:space="preserve" style="font-style:normal;font-weight:400;font-size:7.05556px;line-height:1.25;font-family:sans-serif;fill:#000;fill-opacity:1;stroke:none;stroke-width:.264583" id="text21979-3-89-3" x="-128.278" y="55.621"><tspan id="tspan21977-6-9-3" style="font-size:7.05556px;stroke-width:.264583" x="-128.278" y="55.621">background.height</tspan></text><text xml:space="preserve" style="font-style:normal;font-weight:400;font-size:7.05556px;line-height:1.25;font-family:sans-serif;fill:#000;fill-opacity:1;stroke:none;stroke-width:.264583" id="text21979-2" x="-120.351" y="168.787"><tspan id="tspan21977-1" style="font-size:7.05556px;stroke-width:.264583" x="-120.351" y="168.787">label.padding_right</tspan></text><text xml:space="preserve" style="font-style:normal;font-weight:400;font-size:7.05556px;line-height:1.25;font-family:sans-serif;fill:#000;fill-opacity:1;stroke:none;stroke-width:.264583" id="text21979-3-8" x="-120.286" y="160.267"><tspan id="tspan21977-6-7" style="font-size:7.05556px;stroke-width:.264583" x="-120.286" y="160.267">label.padding_left</tspan></text><path style="fill:none;stroke:#000;stroke-width:.264583px;stroke-linecap:butt;stroke-linejoin:miter;stroke-opacity:1;marker-start:url(#StopL-0);marker-end:url(#marker43227-3)" id="path43215" d="M -16.19854,116.102 -16.39842,84.32108"/></g></g></svg>